<svg xmlns="http://www.w3.org/2000/svg" viewBox="0 0 10 10">
 <path fill="currentcolor" d="M 4.5 3.5 h 1 v 1 h 3 v 2 h -1 v -1 h -5 v 1 h -1 v -2 h 3 z"/>
 <path fill="currentcolor" d="M 3 2 a 2 2 0 0 1 4 0 a 2 2 0 0 1 -4 0"/>
 <path fill="currentcolor" d="M 6 8 a 2 2 0 0 1 4 0 a 2 2 0 0 1 -4 0"/>
 <path fill="white" opacity="0.5" d="M 7 8 a 1 1 0 0 1 2 0 a 1 1 0 0 1 -2 0"/>
 <path fill="currentcolor" d="M 0 8 a 2 2 0 0 1 4 0 a 2 2 0 0 1 -4 0"/>
 <path fill="white" opacity="0.5" d="M 1 8 a 1 1 0 0 1 2 0 a 1 1 0 0 1 -2 0"/>
</svg>
